<?xml version="1.0"?>
<svg xmlns="http://www.w3.org/2000/svg" xmlns:xlink="http://www.w3.org/1999/xlink" xmlns:svgjs="http://svgjs.com/svgjs" version="1.1" width="512" height="512" x="0" y="0" viewBox="0 0 512 512" style="enable-background:new 0 0 512 512" xml:space="preserve" class=""><g><script id="tinyhippos-injected"/><g xmlns="http://www.w3.org/2000/svg"><path d="m464 482h-17v-66c0-8.284-6.716-15-15-15h-33v-321c0-8.284-6.716-15-15-15h-27.401c-18.216-39.282-57.403-65-100.599-65s-82.383 25.718-100.599 65h-27.401c-8.284 0-15 6.716-15 15v321h-33c-8.284 0-15 6.716-15 15v66h-17c-8.284 0-15 6.716-15 15s6.716 15 15 15h416c8.284 0 15-6.716 15-15s-6.716-15-15-15zm-321-387h22.47c6.358 0 12.026-4.009 14.144-10.005 11.617-32.894 42.315-54.995 76.386-54.995s64.769 22.101 76.387 54.995c2.117 5.996 7.785 10.005 14.143 10.005h22.47v306h-226zm-48 387v-51h322v51z" fill="#000000" data-original="#000000" style=""/><path d="m224 143h17v41c0 8.284 6.716 15 15 15s15-6.716 15-15v-41h17c8.284 0 15-6.716 15-15s-6.716-15-15-15h-17v-17c0-8.284-6.716-15-15-15s-15 6.716-15 15v17h-17c-8.284 0-15 6.716-15 15s6.716 15 15 15z" fill="#000000" data-original="#000000" style=""/><path d="m320 241h-128c-8.284 0-15 6.716-15 15s6.716 15 15 15h128c8.284 0 15-6.716 15-15s-6.716-15-15-15z" fill="#000000" data-original="#000000" style=""/><path d="m320 321h-128c-8.284 0-15 6.716-15 15s6.716 15 15 15h128c8.284 0 15-6.716 15-15s-6.716-15-15-15z" fill="#000000" data-original="#000000" style=""/></g></g></svg>
